# xmcd
#
# Track frame offsets: 
#        150
#        16753
#        30716
#        50298
#        68948
#        97073
#        115129
#        136603
#        159812
#        183073
#        206993
#        226742
#        241657
#
# Disc length: 3602 seconds
#
# Revision: 3
# Processed by: cddbd v1.5.2PL0 Copyright (c) Steve Scherf et al.
# Submitted via: ExactAudioCopy v0.95b2
#
DISCID=980e100d
DTITLE=Jimmy Witherspoon - Goin' To Chicago
DYEAR=2001
DGENRE=Blues
TTITLE0=Goin' To Chicago
TTITLE1=Gee, Baby, Ain't I Good To You
TTITLE2=You Got Me Runnin'
TTITLE3=Big Boss Man
TTITLE4=Sweet Lotus Blossom
TTITLE5=I'm Gonna Move To The Outskirts Of Town
TTITLE6=If I Don't Get Well No More
TTITLE7=Money's Gettin' Cheaper
TTITLE8=In The Dark
TTITLE9=I'm Knocking Out Your Teeth Tonite
TTITLE10=Ain't Nobody's Business
TTITLE11=Trouble In Mind
TTITLE12=Don't You Miss Your Baby
EXTD=YEAR: 2001
EXTT0=
EXTT1=
EXTT2=
EXTT3=
EXTT4=
EXTT5=
EXTT6=
EXTT7=
EXTT8=
EXTT9=
EXTT10=
EXTT11=
EXTT12=
PLAYORDER=
